<?xml version="1.0" encoding="UTF-8"?> <!-- Generator: Adobe Illustrator 22.1.0, SVG Export Plug-In . SVG Version: 6.00 Build 0) --> <svg xmlns="http://www.w3.org/2000/svg" xmlns:xlink="http://www.w3.org/1999/xlink" id="Layer_1" x="0px" y="0px" viewBox="0 0 206 86.9" style="enable-background:new 0 0 206 86.9;" xml:space="preserve"> <style type="text/css"> .st0{fill:#7AC144;} </style> <path class="st0" d="M41,1.7h25.5v6.6H48.4v6.9h15.9v6.6H48.4v6.9h18.4v6.7H41V1.7z"></path> <path class="st0" d="M1.9,1.9h6.8v26.9H26v6.7H1.9V1.9z"></path> <path class="st0" d="M97.6,10.5L87.5,35.4h-7.5L94.3,1.6h6.8l14.4,33.8h-7.7L97.6,10.5z"></path> <path class="st0" d="M130.3,1.9h15.3c4.2,0,7.5,1.1,9.8,3.4c1.9,1.9,2.9,4.5,2.9,7.7v0.1c0,2.7-0.7,4.9-2,6.6 c-1.3,1.7-3.1,3-5.2,3.8l8.2,12h-8.6l-7.2-10.7h-0.1h-5.7v10.7h-7.4V1.9z M145.1,18.2c1.8,0,3.2-0.4,4.2-1.3c1-0.9,1.5-2,1.5-3.5 v-0.1c0-1.6-0.5-2.8-1.5-3.6c-1-0.8-2.4-1.2-4.3-1.2h-7.3v9.6H145.1z"></path> <path class="st0" d="M174.5,1.9h6.8l16.2,21.3l0-21.3h6.8v33.5H198l-16.2-21.3v21.3h-7.3V1.9z"></path> <g> <path class="st0" d="M99.3,60.6c-0.4-0.4-0.8-0.7-1.3-0.9s-1-0.3-1.6-0.3c-0.6,0-1.1,0.1-1.6,0.3c-0.5,0.2-0.9,0.5-1.3,0.9 c-0.4,0.4-0.7,0.9-0.9,1.5c-0.2,0.6-0.3,1.2-0.3,1.9V64c0,0.7,0.1,1.3,0.3,1.9c0.2,0.6,0.5,1.1,0.9,1.5c0.4,0.4,0.8,0.7,1.3,0.9 c0.5,0.2,1,0.3,1.6,0.3c0.6,0,1.1-0.1,1.6-0.3s0.9-0.5,1.3-0.9c0.4-0.4,0.7-0.9,0.9-1.5c0.2-0.6,0.3-1.2,0.3-1.9v-0.1 c0-0.7-0.1-1.3-0.3-1.9C100,61.5,99.7,61,99.3,60.6z"></path> <path class="st0" d="M122.7,59.1c-1,0-1.8,0.3-2.4,1c-0.6,0.6-1,1.5-1.2,2.6h7.2c-0.1-1.1-0.5-1.9-1.1-2.6 C124.5,59.4,123.7,59.1,122.7,59.1z"></path> <path class="st0" d="M71.1,65c-1,0-1.8,0.2-2.4,0.6c-0.6,0.4-0.9,1-0.9,1.7v0.1c0,0.6,0.2,1.1,0.7,1.5s1.1,0.5,1.9,0.5 c1.1,0,2-0.3,2.7-0.8c0.7-0.5,1-1.2,1-2.1v-0.8c-0.4-0.2-0.9-0.3-1.4-0.5C72.2,65,71.7,65,71.1,65z"></path> <path class="st0" d="M1.9,42.2v43.7h202.4V42.2H1.9z M31,72.4h-4.6v-1.8c-0.6,0.6-1.3,1.2-2.1,1.5c-0.8,0.4-1.8,0.6-3,0.6 c-0.8,0-1.5-0.1-2.2-0.3c-0.7-0.2-1.3-0.5-1.8-1c-0.5-0.4-0.9-1-1.2-1.6c-0.3-0.6-0.5-1.4-0.5-2.2v-0.1c0-0.9,0.2-1.7,0.5-2.4 c0.3-0.7,0.8-1.2,1.4-1.7c0.6-0.4,1.3-0.8,2.1-1c0.8-0.2,1.7-0.3,2.7-0.3c0.9,0,1.6,0.1,2.2,0.2c0.6,0.1,1.3,0.3,1.9,0.5v-0.3 c0-1-0.3-1.8-0.9-2.3s-1.5-0.8-2.7-0.8c-0.9,0-1.7,0.1-2.4,0.2c-0.7,0.2-1.4,0.4-2.2,0.7l-1.2-3.6c0.9-0.4,1.9-0.7,2.9-1 s2.2-0.4,3.6-0.4c1.3,0,2.4,0.2,3.4,0.5c0.9,0.3,1.7,0.8,2.3,1.4c0.6,0.6,1.1,1.4,1.4,2.3c0.3,0.9,0.4,1.9,0.4,3.1V72.4z M52,71.9 c-1,0.6-2.4,0.9-4.1,0.9c-1.3,0-2.4-0.2-3.5-0.7c-1.1-0.5-2-1.1-2.8-1.9c-0.8-0.8-1.4-1.7-1.8-2.8s-0.7-2.2-0.7-3.4V64 c0-1.2,0.2-2.3,0.7-3.4s1-2,1.8-2.8c0.8-0.8,1.7-1.4,2.8-1.9c1.1-0.5,2.3-0.7,3.6-0.7c1.6,0,2.9,0.3,3.9,0.8s2,1.2,2.8,2.1 l-2.9,3.1c-0.5-0.6-1.1-1-1.7-1.3s-1.3-0.5-2.1-0.5c-0.6,0-1.1,0.1-1.6,0.4s-0.9,0.6-1.3,1c-0.4,0.4-0.6,0.9-0.8,1.5 c-0.2,0.6-0.3,1.1-0.3,1.8V64c0,0.6,0.1,1.2,0.3,1.8c0.2,0.6,0.5,1.1,0.9,1.5c0.4,0.4,0.8,0.7,1.3,1c0.5,0.2,1.1,0.4,1.8,0.4 c0.8,0,1.5-0.2,2.1-0.5c0.6-0.3,1.2-0.8,1.8-1.3l2.8,2.8C54,70.6,53,71.3,52,71.9z M78.7,72.4h-4.6v-1.8c-0.6,0.6-1.3,1.2-2.1,1.5 c-0.8,0.4-1.8,0.6-3,0.6c-0.8,0-1.5-0.1-2.2-0.3c-0.7-0.2-1.3-0.5-1.8-1c-0.5-0.4-0.9-1-1.2-1.6c-0.3-0.6-0.5-1.4-0.5-2.2v-0.1 c0-0.9,0.2-1.7,0.5-2.4c0.3-0.7,0.8-1.2,1.4-1.7c0.6-0.4,1.3-0.8,2.1-1c0.8-0.2,1.7-0.3,2.7-0.3c0.9,0,1.6,0.1,2.2,0.2 c0.6,0.1,1.3,0.3,1.9,0.5v-0.3c0-1-0.3-1.8-0.9-2.3s-1.5-0.8-2.7-0.8c-0.9,0-1.7,0.1-2.4,0.2c-0.7,0.2-1.4,0.4-2.2,0.7l-1.2-3.6 c0.9-0.4,1.9-0.7,2.9-1s2.2-0.4,3.6-0.4c1.3,0,2.4,0.2,3.4,0.5c0.9,0.3,1.7,0.8,2.3,1.4c0.6,0.6,1.1,1.4,1.4,2.3 c0.3,0.9,0.4,1.9,0.4,3.1V72.4z M105.2,72.4h-4.8v-2.4c-0.6,0.8-1.3,1.4-2.1,2c-0.8,0.5-1.9,0.8-3.1,0.8c-1,0-1.9-0.2-2.9-0.6 s-1.7-0.9-2.4-1.7c-0.7-0.7-1.3-1.7-1.7-2.7c-0.4-1.1-0.6-2.3-0.6-3.7v-0.1c0-1.4,0.2-2.6,0.6-3.7c0.4-1.1,1-2,1.7-2.7 c0.7-0.7,1.5-1.3,2.4-1.7c0.9-0.4,1.9-0.6,2.9-0.6c1.3,0,2.3,0.2,3.2,0.7s1.5,1.1,2.1,1.8v-8.3h4.8V72.4z M130.8,65 c0,0.2,0,0.4,0,0.7h-11.7c0.2,1.1,0.7,1.9,1.4,2.4c0.7,0.6,1.6,0.8,2.7,0.8c0.8,0,1.5-0.1,2.1-0.4c0.6-0.3,1.3-0.7,1.9-1.3l2.7,2.4 c-0.8,1-1.8,1.8-2.9,2.3s-2.5,0.8-4,0.8c-1.3,0-2.4-0.2-3.5-0.6s-2-1-2.8-1.8c-0.8-0.8-1.4-1.7-1.8-2.7s-0.7-2.2-0.7-3.5V64 c0-1.2,0.2-2.3,0.6-3.4c0.4-1.1,1-2,1.7-2.8c0.7-0.8,1.6-1.4,2.6-1.9c1-0.5,2.1-0.7,3.4-0.7c1.4,0,2.6,0.2,3.6,0.7s1.9,1.2,2.6,2 c0.7,0.8,1.2,1.8,1.5,2.9c0.3,1.1,0.5,2.2,0.5,3.4C130.9,64.6,130.9,64.8,130.8,65z M164.8,72.4h-4.8V63c0-1.1-0.2-2-0.7-2.6 c-0.5-0.6-1.2-0.9-2.1-0.9s-1.6,0.3-2.1,0.9c-0.5,0.6-0.8,1.4-0.8,2.6v9.4h-4.8V63c0-1.1-0.2-2-0.7-2.6c-0.5-0.6-1.2-0.9-2.1-0.9 c-0.9,0-1.6,0.3-2.1,0.9c-0.5,0.6-0.8,1.4-0.8,2.6v9.4h-4.8V55.6h4.8v2.4c0.3-0.4,0.6-0.7,0.9-1s0.7-0.6,1.1-0.9s0.8-0.5,1.3-0.6 c0.5-0.1,1-0.2,1.6-0.2c1.1,0,2.1,0.2,2.9,0.7c0.8,0.5,1.4,1.1,1.9,2c0.7-0.9,1.6-1.5,2.5-2c0.9-0.4,1.9-0.7,3.1-0.7 c1.8,0,3.2,0.5,4.2,1.6s1.5,2.6,1.5,4.6V72.4z M183.7,72.8c-0.3,0.9-0.7,1.6-1,2.2s-0.7,1.1-1.2,1.5c-0.4,0.4-0.9,0.6-1.5,0.8 c-0.5,0.2-1.2,0.3-1.9,0.3c-0.9,0-1.6-0.1-2.3-0.3c-0.7-0.2-1.3-0.5-1.9-0.8l1.6-3.4c0.3,0.2,0.7,0.3,1,0.5c0.4,0.1,0.7,0.2,1,0.2 c0.4,0,0.8-0.1,1-0.2c0.2-0.2,0.5-0.4,0.7-0.9l-6.6-16.9h5l3.8,11.5l3.7-11.5h5L183.7,72.8z"></path> <path class="st0" d="M23.5,65c-1,0-1.8,0.2-2.4,0.6c-0.6,0.4-0.9,1-0.9,1.7v0.1c0,0.6,0.2,1.1,0.7,1.5s1.1,0.5,1.9,0.5 c1.1,0,2-0.3,2.7-0.8c0.7-0.5,1-1.2,1-2.1v-0.8c-0.4-0.2-0.9-0.3-1.4-0.5C24.6,65,24.1,65,23.5,65z"></path> </g> </svg> 